<?xml version="1.0" encoding="UTF-8" standalone="no"?>
<svg
   xmlns:dc="http://purl.org/dc/elements/1.1/"
   xmlns:cc="http://creativecommons.org/ns#"
   xmlns:rdf="http://www.w3.org/1999/02/22-rdf-syntax-ns#"
   xmlns:svg="http://www.w3.org/2000/svg"
   xmlns="http://www.w3.org/2000/svg"
   xmlns:sodipodi="http://sodipodi.sourceforge.net/DTD/sodipodi-0.dtd"
   xmlns:inkscape="http://www.inkscape.org/namespaces/inkscape"
   height="40"
   width="60"
   version="1.1"
   id="svg998"
   sodipodi:docname="icon-email.svg"
   inkscape:version="0.92.3 (2405546, 2018-03-11)">
  <metadata
     id="metadata1004">
    <rdf:RDF>
      <cc:Work
         rdf:about="">
        <dc:format>image/svg+xml</dc:format>
        <dc:type
           rdf:resource="http://purl.org/dc/dcmitype/StillImage" />
      </cc:Work>
    </rdf:RDF>
  </metadata>
  <defs
     id="defs1002" />
  <sodipodi:namedview
     pagecolor="#ffffff"
     bordercolor="#666666"
     borderopacity="1"
     objecttolerance="10"
     gridtolerance="10"
     guidetolerance="10"
     inkscape:pageopacity="0"
     inkscape:pageshadow="2"
     inkscape:window-width="1920"
     inkscape:window-height="1025"
     id="namedview1000"
     showgrid="false"
     inkscape:zoom="4.9166667"
     inkscape:cx="24"
     inkscape:cy="16"
     inkscape:window-x="0"
     inkscape:window-y="27"
     inkscape:window-maximized="1"
     inkscape:current-layer="svg998" />
  <path
     d="M 55,40 H 5 C 2.2425,40 0,37.7575 0,35 V 5 C 0,2.2425 2.2425,0 5,0 h 50 c 2.7575,0 5,2.2425 5,5 v 30 c 0,2.7575 -2.2425,5 -5,5 z M 5,2.5 C 3.62125,2.5 2.5,3.62125 2.5,5 v 30 c 0,1.37875 1.12125,2.5 2.5,2.5 h 50 c 1.37875,0 2.5,-1.12125 2.5,-2.5 V 5 C 57.5,3.62125 56.37875,2.5 55,2.5 Z"
     id="path994"
     inkscape:connector-curvature="0"
     style="stroke-width:1.25" />
  <path
     d="M 30,26.48875 8.07125,12.3 a 1.2502806,1.2502806 0 0 1 1.3575,-2.1 L 30,23.51125 50.57125,10.2 a 1.2502806,1.2502806 0 0 1 1.3575,2.1 z M 7.50125,32.5 a 1.25,1.25 0 0 1 -0.695,-2.29 l 11.25,-7.5 a 1.2501556,1.2501556 0 1 1 1.3875,2.08 l -11.25,7.5 a 1.255,1.255 0 0 1 -0.6925,0.21 z m 44.9975,0 c -0.2375,0 -0.47875,-0.06875 -0.6925,-0.21 l -11.25,-7.5 a 1.2501556,1.2501556 0 1 1 1.3875,-2.08 l 11.25,7.5 a 1.25,1.25 0 0 1 -0.695,2.29 z"
     id="path996"
     inkscape:connector-curvature="0"
     style="stroke-width:1.25" />
</svg>
