<?xml version="1.0" encoding="UTF-8" standalone="no"?>
<svg
   xmlns:dc="http://purl.org/dc/elements/1.1/"
   xmlns:cc="http://creativecommons.org/ns#"
   xmlns:rdf="http://www.w3.org/1999/02/22-rdf-syntax-ns#"
   xmlns:svg="http://www.w3.org/2000/svg"
   xmlns="http://www.w3.org/2000/svg"
   xmlns:sodipodi="http://sodipodi.sourceforge.net/DTD/sodipodi-0.dtd"
   xmlns:inkscape="http://www.inkscape.org/namespaces/inkscape"
   id="Layer_1"
   viewBox="0 0 42.352939 40"
   version="1.1"
   sodipodi:docname="icon-cart.svg"
   width="42.35294"
   height="40"
   inkscape:version="0.92.3 (2405546, 2018-03-11)">
  <metadata
     id="metadata992">
    <rdf:RDF>
      <cc:Work
         rdf:about="">
        <dc:format>image/svg+xml</dc:format>
        <dc:type
           rdf:resource="http://purl.org/dc/dcmitype/StillImage" />
      </cc:Work>
    </rdf:RDF>
  </metadata>
  <defs
     id="defs990" />
  <sodipodi:namedview
     pagecolor="#ffffff"
     bordercolor="#666666"
     borderopacity="1"
     objecttolerance="10"
     gridtolerance="10"
     guidetolerance="10"
     inkscape:pageopacity="0"
     inkscape:pageshadow="2"
     inkscape:window-width="1920"
     inkscape:window-height="1025"
     id="namedview988"
     showgrid="false"
     inkscape:zoom="3.6875"
     inkscape:cx="-19.176271"
     inkscape:cy="21.999999"
     inkscape:window-x="0"
     inkscape:window-y="27"
     inkscape:window-maximized="1"
     inkscape:current-layer="Layer_1" />
  <g
     id="g3852"
     transform="matrix(0.90497738,0,0,0.90497738,-7.7828055,-8.8687783)">
    <path
       id="Fill-110"
       d="M 48.5,45.7 H 18.2 c -0.5,0 -0.9,-0.2 -1.1,-0.6 C 16.8,44.7 16.8,44.2 17,43.8 L 19.6,37.2 17,12.6 H 8.6 V 9.8 h 9.6 c 0.7,0 1.3,0.5 1.4,1.2 l 2.8,26.1 c 0,0.2 0,0.4 -0.1,0.7 l -2,5 h 28.2 v 2.9"
       class="st0"
       inkscape:connector-curvature="0"
       style="fill:#000000" />
    <path
       id="Fill-111"
       d="M 21.3,38.8 20.7,36.1 52.6,29.5 V 18.2 h -33 V 15.4 H 54 c 0.8,0 1.4,0.6 1.4,1.4 v 13.8 c 0,0.7 -0.5,1.2 -1.1,1.3 l -33,6.9"
       class="st0"
       inkscape:connector-curvature="0"
       style="fill:#000000" />
    <path
       id="Fill-112"
       d="m 49.9,54 c -3,0 -5.5,-2.5 -5.5,-5.5 0,-3 2.5,-5.5 5.5,-5.5 3,0 5.5,2.5 5.5,5.5 0,3 -2.5,5.5 -5.5,5.5 z m 0,-8.3 c -1.5,0 -2.8,1.2 -2.8,2.8 0,1.6 1.2,2.8 2.8,2.8 1.6,0 2.8,-1.2 2.8,-2.8 0,-1.6 -1.3,-2.8 -2.8,-2.8 z"
       class="st0"
       inkscape:connector-curvature="0"
       style="fill:#000000" />
    <path
       id="Fill-113"
       d="m 16.9,54 c -3,0 -5.5,-2.5 -5.5,-5.5 0,-3 2.5,-5.5 5.5,-5.5 3,0 5.5,2.5 5.5,5.5 0,3 -2.5,5.5 -5.5,5.5 z m 0,-8.3 c -1.5,0 -2.8,1.2 -2.8,2.8 0,1.6 1.2,2.8 2.8,2.8 1.6,0 2.8,-1.2 2.8,-2.8 0,-1.6 -1.3,-2.8 -2.8,-2.8 z"
       class="st0"
       inkscape:connector-curvature="0"
       style="fill:#000000" />
  </g>
</svg>
