<?xml version="1.0" encoding="UTF-8" standalone="no"?>
<svg
   xmlns:dc="http://purl.org/dc/elements/1.1/"
   xmlns:cc="http://creativecommons.org/ns#"
   xmlns:rdf="http://www.w3.org/1999/02/22-rdf-syntax-ns#"
   xmlns:svg="http://www.w3.org/2000/svg"
   xmlns="http://www.w3.org/2000/svg"
   xmlns:sodipodi="http://sodipodi.sourceforge.net/DTD/sodipodi-0.dtd"
   xmlns:inkscape="http://www.inkscape.org/namespaces/inkscape"
   height="39.999996"
   width="39.997303"
   version="1.1"
   id="svg1061"
   sodipodi:docname="icon-phone.svg"
   inkscape:version="0.92.3 (2405546, 2018-03-11)">
  <metadata
     id="metadata1067">
    <rdf:RDF>
      <cc:Work
         rdf:about="">
        <dc:format>image/svg+xml</dc:format>
        <dc:type
           rdf:resource="http://purl.org/dc/dcmitype/StillImage" />
      </cc:Work>
    </rdf:RDF>
  </metadata>
  <defs
     id="defs1065" />
  <sodipodi:namedview
     pagecolor="#ffffff"
     bordercolor="#666666"
     borderopacity="1"
     objecttolerance="10"
     gridtolerance="10"
     guidetolerance="10"
     inkscape:pageopacity="0"
     inkscape:pageshadow="2"
     inkscape:window-width="1920"
     inkscape:window-height="1025"
     id="namedview1063"
     showgrid="false"
     inkscape:zoom="4.72"
     inkscape:cx="-11.439831"
     inkscape:cy="25.63541"
     inkscape:window-x="0"
     inkscape:window-y="27"
     inkscape:window-maximized="1"
     inkscape:current-layer="svg1061" />
  <path
     d="m 24.163376,28.207062 c 0,0 3.23774,-1.853564 4.08536,-2.298963 0.84521,-0.446999 1.72082,-0.559748 2.25258,-0.235094 0.80524,0.492578 7.56699,4.990549 8.13633,5.388769 0.56934,0.399021 0.84362,1.538507 0.0608,2.654803 -0.77965,1.116297 -4.37643,5.530306 -5.90054,5.483127 -1.52651,-0.04958 -7.87325,-0.188715 -19.84145,-12.160116 C 0.99065654,15.072186 0.84911654,8.7238491 0.80033654,7.1973371 c -0.0488,-1.525712 4.36523996,-5.123289 5.48152996,-5.903737 1.1178999,-0.77964896 2.2589799,-0.48618096 2.6556099,0.06237 0.45099,0.624519 4.8969896,7.364679 5.3863696,8.1371308 0.33504,0.5277621 0.2119,1.4081651 -0.2351,2.2541831 -0.4446,0.847618 -2.29816,4.085358 -2.29816,4.085358 0,0 1.30661,2.228595 5.72542,6.646602 4.4196,4.418807 6.6474,5.727817 6.6474,5.727818 z"
     stroke-miterlimit="10"
     id="path1059"
     inkscape:connector-curvature="0"
     style="fill:none;stroke:#000000;stroke-width:1.59927869;stroke-miterlimit:10" />
</svg>
