<?xml version="1.0" encoding="UTF-8" standalone="no"?>
<svg
   xmlns:dc="http://purl.org/dc/elements/1.1/"
   xmlns:cc="http://creativecommons.org/ns#"
   xmlns:rdf="http://www.w3.org/1999/02/22-rdf-syntax-ns#"
   xmlns:svg="http://www.w3.org/2000/svg"
   xmlns="http://www.w3.org/2000/svg"
   xmlns:sodipodi="http://sodipodi.sourceforge.net/DTD/sodipodi-0.dtd"
   xmlns:inkscape="http://www.inkscape.org/namespaces/inkscape"
   height="40"
   id="Layer_1"
   version="1.2"
   viewBox="0 0 40.142857 40"
   width="40.142857"
   xml:space="preserve"
   sodipodi:docname="iconfinder_social-linkedin_216394.svg"
   inkscape:version="0.92.3 (2405546, 2018-03-11)"><metadata
     id="metadata2085"><rdf:RDF><cc:Work
         rdf:about=""><dc:format>image/svg+xml</dc:format><dc:type
           rdf:resource="http://purl.org/dc/dcmitype/StillImage" /></cc:Work></rdf:RDF></metadata><defs
     id="defs2083" /><sodipodi:namedview
     pagecolor="#ffffff"
     bordercolor="#666666"
     borderopacity="1"
     objecttolerance="10"
     gridtolerance="10"
     guidetolerance="10"
     inkscape:pageopacity="0"
     inkscape:pageshadow="2"
     inkscape:window-width="1920"
     inkscape:window-height="1025"
     id="namedview2081"
     showgrid="false"
     inkscape:zoom="9.8333333"
     inkscape:cx="7.0499997"
     inkscape:cy="7.0000011"
     inkscape:window-x="0"
     inkscape:window-y="27"
     inkscape:window-maximized="1"
     inkscape:current-layer="Layer_1" /><g
     id="g2074"
     transform="matrix(2.8571429,0,0,2.8571429,-14.142857,-14.285714)"><path
       d="M 8,19 H 5 V 9 h 3 z m 11,0 h -3 v -5.342 c 0,-1.392 -0.496,-2.085 -1.479,-2.085 -0.779,0 -1.273,0.388 -1.521,1.165 C 13,14 13,19 13,19 h -3 c 0,0 0.04,-9 0,-10 h 2.368 l 0.183,2 h 0.062 c 0.615,-1 1.598,-1.678 2.946,-1.678 1.025,0 1.854,0.285 2.487,1.001 0.637,0.717 0.954,1.679 0.954,3.03 z"
       id="path2072"
       inkscape:connector-curvature="0" /></g><g
     id="g2078"
     transform="matrix(2.8571429,0,0,2.8571429,-14.142857,-14.285714)"><ellipse
       cx="6.5"
       cy="6.5"
       rx="1.55"
       ry="1.5"
       id="ellipse2076" /></g></svg>