<?xml version="1.0" encoding="UTF-8" standalone="no"?>
<svg
   xmlns:dc="http://purl.org/dc/elements/1.1/"
   xmlns:cc="http://creativecommons.org/ns#"
   xmlns:rdf="http://www.w3.org/1999/02/22-rdf-syntax-ns#"
   xmlns:svg="http://www.w3.org/2000/svg"
   xmlns="http://www.w3.org/2000/svg"
   xmlns:sodipodi="http://sodipodi.sourceforge.net/DTD/sodipodi-0.dtd"
   xmlns:inkscape="http://www.inkscape.org/namespaces/inkscape"
   height="40"
   width="31.304348"
   version="1.1"
   id="svg1049"
   sodipodi:docname="icon-pdf.svg"
   inkscape:version="0.92.3 (2405546, 2018-03-11)">
  <metadata
     id="metadata1055">
    <rdf:RDF>
      <cc:Work
         rdf:about="">
        <dc:format>image/svg+xml</dc:format>
        <dc:type
           rdf:resource="http://purl.org/dc/dcmitype/StillImage" />
      </cc:Work>
    </rdf:RDF>
  </metadata>
  <defs
     id="defs1053" />
  <sodipodi:namedview
     pagecolor="#ffffff"
     bordercolor="#666666"
     borderopacity="1"
     objecttolerance="10"
     gridtolerance="10"
     guidetolerance="10"
     inkscape:pageopacity="0"
     inkscape:pageshadow="2"
     inkscape:window-width="1920"
     inkscape:window-height="1025"
     id="namedview1051"
     showgrid="false"
     inkscape:zoom="9.8333333"
     inkscape:cx="9"
     inkscape:cy="12"
     inkscape:window-x="0"
     inkscape:window-y="27"
     inkscape:window-maximized="1"
     inkscape:current-layer="svg1049" />
  <path
     d="M 3.4782609,1.73913 C 1.5565217,1.73913 0,3.304348 0,5.217391 V 36.521739 C 0,38.434783 1.5565217,40 3.4782609,40 H 27.826087 c 1.921739,0 3.478261,-1.565217 3.478261,-3.478261 V 12.173913 L 20.869565,1.73913 Z"
     id="path1041"
     inkscape:connector-curvature="0"
     style="fill:#c0392b;stroke-width:1.73913038" />
  <path
     d="M 3.4782609,0 C 1.5565217,0 0,1.565217 0,3.478261 v 31.304348 c 0,1.913043 1.5565217,3.478261 3.4782609,3.478261 H 27.826087 c 1.921739,0 3.478261,-1.565218 3.478261,-3.478261 V 10.434783 L 20.869565,0 Z"
     id="path1043"
     inkscape:connector-curvature="0"
     style="fill:#e74c3c;stroke-width:1.73913038" />
  <path
     d="M 31.304348,10.434783 20.869565,0 v 6.9565217 c 0,1.9130435 1.556522,3.4782613 3.478261,3.4782613 z"
     id="path1045"
     inkscape:connector-curvature="0"
     style="fill:#c0392b;stroke-width:1.73913038" />
  <path
     d="m 28.02087,17.391304 h -0.504348 c -0.156522,0.173913 -1.045218,1.391305 -1.429565,1.739131 -0.104348,0.173913 -0.26087,0.347826 -0.349566,0.347826 -1.292174,1.565217 -4.04,4.173913 -5.688695,5.565217 -0.215653,0.173913 -0.424348,0.347826 -0.462609,0.347826 -0.114783,0.173913 -1.213913,0.869566 -1.707826,1.217392 -1.573913,1.043478 -3.42087,1.913043 -4.855652,2.260869 C 10.191304,29.565217 7.982609,29.391304 5.1130435,28 4.2469565,27.652174 3.0121739,26.956522 2.3356522,26.434783 1.6713043,25.913043 1.7408696,25.913043 1.7408696,26.782609 v 0.869565 l 0.4486956,0.173913 c 0.5756522,0.347826 1.8173913,1.043478 2.626087,1.391304 0.6173913,0.347826 0.8086956,0.521739 0.4643478,0.521739 -0.3182609,-0.173913 -2.1217391,-0.173913 -2.8156522,0 H 1.7686957 c -0.017391,0 -0.029565,0.347827 -0.029565,0.695653 v 0.695652 H 1.9721742 C 2.968696,30.782609 5.1095655,30.782609 6.1060873,30.956522 7.28,31.130435 8.106087,31.304348 9.097391,31.826087 c 1.892174,0.869565 3.462609,2.608696 4.146087,4.347826 l 0.139131,0.347826 h 1.530434 l -0.04174,-0.173913 c -0.245217,-1.043478 -0.933913,-2.260869 -1.786087,-3.130435 -0.56,-0.695652 -1.547826,-1.391304 -1.93913,-1.73913 h -0.130435 c -0.06435,-0.173913 -0.725217,-0.521739 -1.008695,-0.521739 -0.16,-0.173913 -0.290435,-0.173913 -0.290435,-0.173913 0,-0.173913 0.121739,-0.173913 0.269565,0 0.372174,0 1.867826,-0.173913 2.544348,-0.347826 1.874782,-0.347826 3.648695,-1.043479 5.441739,-2.086957 C 18.615652,28 20.076522,26.782609 20.66087,26.434783 c 0.434782,-0.52174 0.573913,-0.52174 0.396521,-0.347826 -0.06261,0.173913 -0.182608,0.347826 -0.269565,0.521739 -0.08522,0.173913 -0.234783,0.347826 -0.330435,0.521739 -1.353043,2.086956 -2.220869,4.695652 -2.455652,7.652174 C 17.968696,35.304348 17.94087,35.826087 17.94087,36 v 0.521739 h 8.111304 L 25.92,36.347826 C 25.189565,35.304348 24.283478,33.043478 23.97913,31.478261 23.728696,30.26087 23.653913,28.347826 23.810435,27.304348 24.266087,24.521739 25.81913,22.086956 28.486957,20.521739 28.761739,20.347826 29.116522,20.173913 29.274783,20 l 0.290434,-0.173913 v -0.521739 c 0,-0.347826 -0.02087,-0.695652 -0.04696,-0.695652 -0.633044,0.347826 -2.041739,1.217391 -2.688696,1.565217 -0.346087,0.347826 -0.366956,0.347826 -0.04174,0 0.466087,-0.521739 1.269565,-1.391304 2.123478,-2.434783 l 0.398261,-0.347826 z"
     id="path1047"
     inkscape:connector-curvature="0"
     style="fill:#ecf0f1;stroke-width:1.73913038" />
</svg>
