<?xml version="1.0" encoding="UTF-8" standalone="no"?>
<svg
   xmlns:dc="http://purl.org/dc/elements/1.1/"
   xmlns:cc="http://creativecommons.org/ns#"
   xmlns:rdf="http://www.w3.org/1999/02/22-rdf-syntax-ns#"
   xmlns:svg="http://www.w3.org/2000/svg"
   xmlns="http://www.w3.org/2000/svg"
   xmlns:sodipodi="http://sodipodi.sourceforge.net/DTD/sodipodi-0.dtd"
   xmlns:inkscape="http://www.inkscape.org/namespaces/inkscape"
   enable-background="new 0 0 512 512"
   height="40.000004"
   id="Layer_1"
   version="1.1"
   viewBox="0 0 40.001522 40.000004"
   width="40.001522"
   xml:space="preserve"
   sodipodi:docname="icon-close.svg"
   inkscape:version="0.92.3 (2405546, 2018-03-11)"><metadata
     id="metadata915"><rdf:RDF><cc:Work
         rdf:about=""><dc:format>image/svg+xml</dc:format><dc:type
           rdf:resource="http://purl.org/dc/dcmitype/StillImage" /><dc:title></dc:title></cc:Work></rdf:RDF></metadata><defs
     id="defs913" /><sodipodi:namedview
     pagecolor="#ffffff"
     bordercolor="#666666"
     borderopacity="1"
     objecttolerance="10"
     gridtolerance="10"
     guidetolerance="10"
     inkscape:pageopacity="0"
     inkscape:pageshadow="2"
     inkscape:window-width="1920"
     inkscape:window-height="1025"
     id="namedview911"
     showgrid="false"
     inkscape:zoom="3.6875"
     inkscape:cx="-123.57372"
     inkscape:cy="-70.434792"
     inkscape:window-x="0"
     inkscape:window-y="27"
     inkscape:window-maximized="1"
     inkscape:current-layer="Layer_1" /><path
     d="m 5.85758,34.141542 c -7.8101067,-7.81011 -7.8101067,-20.4737 0,-28.2839595 7.812607,-7.81011 20.473776,-7.81011 28.286305,0 7.810185,7.8101795 7.810185,20.4738495 0,28.2839595 -7.812529,7.81128 -20.473698,7.81128 -28.286305,0 z M 30.608673,9.3927925 c -5.859416,-5.85816 -15.356465,-5.85816 -21.2134592,0 -5.8594159,5.8581695 -5.8594159,15.3553695 0,21.2135395 5.8569942,5.85824 15.3540432,5.85824 21.2134592,0 5.85715,-5.85832 5.85715,-15.35537 0,-21.2135395 z m -15.91068,19.4459695 -3.535212,-3.53638 5.302779,-5.30286 -5.302779,-5.30278 3.535212,-3.53646 5.302778,5.30403 5.302857,-5.30403 3.535134,3.53646 -5.302779,5.30278 5.302779,5.30286 -3.535134,3.53638 -5.302857,-5.30403 z"
     id="path908"
     inkscape:connector-curvature="0"
     style="stroke-width:0.0781245" /></svg>