<?xml version="1.0" encoding="UTF-8" standalone="no"?>
<svg
   xmlns:dc="http://purl.org/dc/elements/1.1/"
   xmlns:cc="http://creativecommons.org/ns#"
   xmlns:rdf="http://www.w3.org/1999/02/22-rdf-syntax-ns#"
   xmlns:svg="http://www.w3.org/2000/svg"
   xmlns="http://www.w3.org/2000/svg"
   xmlns:sodipodi="http://sodipodi.sourceforge.net/DTD/sodipodi-0.dtd"
   xmlns:inkscape="http://www.inkscape.org/namespaces/inkscape"
   enable-background="new 0 0 56.693 56.693"
   height="40"
   id="Layer_1"
   version="1.1"
   viewBox="0 0 49.22116 39.999999"
   width="49.221161"
   xml:space="preserve"
   sodipodi:docname="icon-twitter.svg"
   inkscape:version="0.92.3 (2405546, 2018-03-11)"><metadata
     id="metadata893"><rdf:RDF><cc:Work
         rdf:about=""><dc:format>image/svg+xml</dc:format><dc:type
           rdf:resource="http://purl.org/dc/dcmitype/StillImage" /></cc:Work></rdf:RDF></metadata><defs
     id="defs891" /><sodipodi:namedview
     pagecolor="#ffffff"
     bordercolor="#666666"
     borderopacity="1"
     objecttolerance="10"
     gridtolerance="10"
     guidetolerance="10"
     inkscape:pageopacity="0"
     inkscape:pageshadow="2"
     inkscape:window-width="1920"
     inkscape:window-height="1025"
     id="namedview889"
     showgrid="false"
     inkscape:zoom="4.1627714"
     inkscape:cx="24.7725"
     inkscape:cy="22.0135"
     inkscape:window-x="0"
     inkscape:window-y="27"
     inkscape:window-maximized="1"
     inkscape:current-layer="Layer_1" /><path
     d="M 49.221162,4.734975 C 47.4117,5.539292 45.464355,6.08183 43.421092,6.324624 45.507319,5.075686 47.106959,3.097367 47.861318,0.737373 45.909977,1.895389 43.749813,2.735675 41.448769,3.189289 39.607334,1.226957 36.982565,0 34.078034,0 28.501773,0 23.980616,4.521157 23.980616,10.098416 c 0,0.790329 0.08892,1.560674 0.261778,2.301044 C 15.849528,11.977819 8.407853,7.958235 3.427087,1.848429 2.5578258,3.339162 2.0602488,5.073687 2.0602488,6.926113 c 0,3.503022 1.7824849,6.594395 4.4921812,8.404856 -1.6545932,-0.05296 -3.2122691,-0.507569 -4.5741116,-1.263926 -9.991e-4,0.04196 -9.991e-4,0.08493 -9.991e-4,0.127891 0,4.891842 3.4810411,8.972374 8.1011137,9.901584 -0.847279,0.229805 -1.739521,0.353699 -2.660738,0.353699 -0.651446,0 -1.2839087,-0.06295 -1.9003847,-0.181845 1.2859067,4.01159 5.0147377,6.932108 9.4329817,7.013039 C 11.49423,33.990108 7.14093,35.604736 2.4089524,35.604736 1.5946446,35.604736 0.7903282,35.556776 0,35.462857 4.4702003,38.32942 9.777689,40 15.479842,40 34.055053,40 44.21142,24.613079 44.21142,11.268422 c 0,-0.437628 -0.009,-0.874257 -0.02798,-1.307888 1.972324,-1.420793 3.684868,-3.20028 5.037718,-5.225559 z"
     id="path886"
     inkscape:connector-curvature="0"
     style="stroke-width:0.99915069" /></svg>