<?xml version="1.0" encoding="UTF-8" standalone="no"?>
<svg
   xmlns:dc="http://purl.org/dc/elements/1.1/"
   xmlns:cc="http://creativecommons.org/ns#"
   xmlns:rdf="http://www.w3.org/1999/02/22-rdf-syntax-ns#"
   xmlns:svg="http://www.w3.org/2000/svg"
   xmlns="http://www.w3.org/2000/svg"
   xmlns:sodipodi="http://sodipodi.sourceforge.net/DTD/sodipodi-0.dtd"
   xmlns:inkscape="http://www.inkscape.org/namespaces/inkscape"
   height="40"
   width="39.994686"
   version="1.1"
   id="svg1061"
   sodipodi:docname="icon-phone.svg"
   inkscape:version="0.92.3 (2405546, 2018-03-11)">
  <metadata
     id="metadata1067">
    <rdf:RDF>
      <cc:Work
         rdf:about="">
        <dc:format>image/svg+xml</dc:format>
        <dc:type
           rdf:resource="http://purl.org/dc/dcmitype/StillImage" />
      </cc:Work>
    </rdf:RDF>
  </metadata>
  <defs
     id="defs1065" />
  <sodipodi:namedview
     pagecolor="#ffffff"
     bordercolor="#666666"
     borderopacity="1"
     objecttolerance="10"
     gridtolerance="10"
     guidetolerance="10"
     inkscape:pageopacity="0"
     inkscape:pageshadow="2"
     inkscape:window-width="1920"
     inkscape:window-height="1025"
     id="namedview1063"
     showgrid="false"
     inkscape:zoom="6.675088"
     inkscape:cx="6.9104294"
     inkscape:cy="-11.245068"
     inkscape:window-x="0"
     inkscape:window-y="27"
     inkscape:window-maximized="1"
     inkscape:current-layer="svg1061" />
  <path
     style="color:#000000;font-style:normal;font-variant:normal;font-weight:normal;font-stretch:normal;font-size:medium;line-height:normal;font-family:sans-serif;font-variant-ligatures:normal;font-variant-position:normal;font-variant-caps:normal;font-variant-numeric:normal;font-variant-alternates:normal;font-feature-settings:normal;text-indent:0;text-align:start;text-decoration:none;text-decoration-line:none;text-decoration-style:solid;text-decoration-color:#000000;letter-spacing:normal;word-spacing:normal;text-transform:none;writing-mode:lr-tb;direction:ltr;text-orientation:mixed;dominant-baseline:auto;baseline-shift:baseline;text-anchor:start;white-space:normal;shape-padding:0;clip-rule:nonzero;display:inline;overflow:visible;visibility:visible;opacity:1;isolation:auto;mix-blend-mode:normal;color-interpolation:sRGB;color-interpolation-filters:linearRGB;solid-color:#000000;solid-opacity:1;vector-effect:none;fill:#000000;fill-opacity:1;fill-rule:nonzero;stroke:none;stroke-width:2.22996688;stroke-linecap:butt;stroke-linejoin:miter;stroke-miterlimit:10;stroke-dasharray:none;stroke-dashoffset:0;stroke-opacity:1;color-rendering:auto;image-rendering:auto;shape-rendering:auto;text-rendering:auto;enable-background:accumulate"
     d="M 8.1774482,0.00962411 C 7.4359223,-0.05053889 6.6164372,0.17065384 5.866952,0.69336203 v 0.00192 C 5.224346,1.144557 3.8765783,2.2138051 2.6076734,3.4321547 1.9732209,4.0413294 1.3694531,4.6767331 0.89256685,5.3105132 0.41568063,5.9442935 -0.0282113,6.5242 0.00140288,7.4500751 0.02491049,8.185718 0.10675282,10.426879 1.6877003,13.793856 c 1.5809474,3.366978 4.6407249,7.968349 10.5921747,13.920596 5.952631,5.954223 10.553848,9.014827 13.920596,10.596016 3.366749,1.58119 5.609519,1.66437 6.343781,1.688218 h 0.002 c 0.925656,0.02866 1.502397,-0.416024 2.135721,-0.893084 0.633324,-0.47706 1.269468,-1.082503 1.878359,-1.717028 1.217008,-1.26824 2.285261,-2.613729 2.734952,-3.257358 1.044876,-1.489986 0.90676,-3.295517 -0.332267,-4.163887 h -0.002 c -0.726157,-0.507902 -7.057866,-4.726213 -8.056968,-5.33738 h -0.002 c -1.084185,-0.661924 -2.270016,-0.354935 -3.313055,0.195903 -0.783487,0.411698 -2.722392,1.523174 -3.430214,1.928294 -0.548991,-0.356357 -2.213047,-1.497305 -5.817533,-5.101146 -3.605685,-3.605028 -4.744491,-5.269936 -5.099225,-5.817533 0.404557,-0.706818 1.512958,-2.638663 1.926373,-3.426372 v -0.002 c 0.548498,-1.03871 0.880868,-2.236298 0.186299,-3.3322614 v -0.00192 C 15.081334,8.6414316 13.89061,6.8311184 12.681283,5.0012947 11.471558,3.1708679 10.339461,1.4566949 10.021235,1.0160248 9.5840652,0.41140493 8.9189742,0.06978709 8.1774482,0.00962411 Z M 7.975784,2.2893905 c 0.1918459,0.027316 0.2852991,0.099772 0.2381559,0.034571 0.1259966,0.1745732 1.3992331,2.0801648 2.6062701,3.9065249 1.207448,1.8269816 2.444057,3.7083258 2.652365,4.0371256 v 0.002 c -0.0375,-0.05907 0.05324,0.474371 -0.276568,1.09859 v 0.002 c -0.387595,0.738941 -2.241354,3.981429 -2.241354,3.981429 l -0.320743,0.560819 0.326504,0.556977 c 0,0 1.403975,2.361239 5.80409,6.760554 2.514786,2.514335 4.155575,3.875341 5.277842,4.730468 0.637659,0.405296 0.954637,0.664849 2.047373,1.229192 0.6418,-0.321329 1.399667,-0.685404 2.235591,-1.09475 0.989856,-0.562097 1.87294,-1.069615 2.300894,-1.294492 l 0.002,-0.002 c 0.618313,-0.327001 1.151733,-0.240807 1.112035,-0.265044 0.584469,0.357529 7.546019,4.983861 7.941729,5.260556 -0.119301,-0.08362 0.281513,0.352818 -0.213187,1.058257 v 0.002 c -0.317483,0.454571 -1.4009,1.826346 -2.517922,2.990393 -0.558512,0.582023 -1.134149,1.122747 -1.609473,1.480792 -0.474409,0.357355 -0.897702,0.437923 -0.724071,0.443661 -0.766836,-0.02491 -2.39667,-0.03451 -5.467982,-1.47695 C 24.077941,34.849467 19.673036,31.955523 13.856698,26.137629 8.0415393,20.321692 5.1485522,15.916747 3.7062634,12.845074 2.2639747,9.7734012 2.2537732,8.1444702 2.2293128,7.3790124 2.2349332,7.5547304 2.3151984,7.1285039 2.6729742,6.6530211 3.03075,6.1775383 3.5718633,5.5984258 4.1537661,5.039707 5.3175717,3.9222693 6.6890575,2.8399664 7.144159,2.5217846 v 0.00192 C 7.4939644,2.2797429 7.783938,2.2620749 7.975784,2.2893905 Z"
     id="path1059"
     inkscape:connector-curvature="0"
     sodipodi:nodetypes="sccsscscsccsscccccccccccccscsscsccccccccccccccccccscccscssccs" />
</svg>
