<?xml version="1.0" encoding="UTF-8" standalone="no"?>
<svg
   xmlns:dc="http://purl.org/dc/elements/1.1/"
   xmlns:cc="http://creativecommons.org/ns#"
   xmlns:rdf="http://www.w3.org/1999/02/22-rdf-syntax-ns#"
   xmlns:svg="http://www.w3.org/2000/svg"
   xmlns="http://www.w3.org/2000/svg"
   xmlns:sodipodi="http://sodipodi.sourceforge.net/DTD/sodipodi-0.dtd"
   xmlns:inkscape="http://www.inkscape.org/namespaces/inkscape"
   height="40"
   width="39.979404"
   version="1.1"
   id="svg1021"
   sodipodi:docname="icon-help.svg"
   inkscape:version="0.92.3 (2405546, 2018-03-11)">
  <metadata
     id="metadata1027">
    <rdf:RDF>
      <cc:Work
         rdf:about="">
        <dc:format>image/svg+xml</dc:format>
        <dc:type
           rdf:resource="http://purl.org/dc/dcmitype/StillImage" />
      </cc:Work>
    </rdf:RDF>
  </metadata>
  <defs
     id="defs1025" />
  <sodipodi:namedview
     pagecolor="#ffffff"
     bordercolor="#666666"
     borderopacity="1"
     objecttolerance="10"
     gridtolerance="10"
     guidetolerance="10"
     inkscape:pageopacity="0"
     inkscape:pageshadow="2"
     inkscape:window-width="1920"
     inkscape:window-height="1025"
     id="namedview1023"
     showgrid="false"
     inkscape:zoom="1.84375"
     inkscape:cx="50.072625"
     inkscape:cy="50.178"
     inkscape:window-x="0"
     inkscape:window-y="27"
     inkscape:window-maximized="1"
     inkscape:current-layer="svg1021" />
  <path
     d="m 6.4295326,34.35667 a 0.79792539,0.79792539 0 0 1 -0.564133,-1.36166 l 5.0556554,-5.05525 a 0.79792539,0.79792539 0 0 1 1.128267,1.12826 l -5.0556564,5.05526 c -0.155994,0.15559 -0.359864,0.23339 -0.564133,0.23339 z M 28.495761,12.290844 a 0.79792539,0.79792539 0 0 1 -0.564133,-1.362059 l 5.053261,-5.05366 a 0.79792539,0.79792539 0 1 1 1.128267,1.128266 l -5.053262,5.053661 a 0.79553162,0.79553162 0 0 1 -0.564133,0.233792 z m 5.053262,22.066626 a 0.79632954,0.79632954 0 0 1 -0.564134,-0.23379 l -5.020546,-5.02055 a 0.79792539,0.79792539 0 1 1 1.128266,-1.12826 l 5.020547,5.02054 a 0.79792539,0.79792539 0 0 1 -0.564133,1.36206 z M 11.51551,12.323559 A 0.79632954,0.79632954 0 0 1 10.951376,12.089767 L 5.8653996,7.00379 A 0.79792539,0.79792539 0 1 1 6.9936656,5.875524 L 12.079643,10.9615 a 0.79792539,0.79792539 0 0 1 -0.564133,1.362059 z"
     id="path1015"
     inkscape:connector-curvature="0"
     style="stroke-width:0.39896271" />
  <path
     d="M 19.988679,40 C 14.646569,40 9.6248246,37.91941 5.8482446,34.14163 -1.9490824,26.3447 -1.9494814,13.656094 5.8474466,5.85757 9.6248246,2.080192 14.646968,0 19.989078,0 c 5.342111,0 10.364652,2.080192 14.142031,5.85757 7.797726,7.797726 7.797726,20.48554 0,28.28326 C 30.353331,37.91941 25.33079,40 19.988679,40 Z m 3.99e-4,-38.404149 c -4.915619,0 -9.537203,1.914223 -13.0133654,5.389986 -7.17454597,7.176541 -7.17414697,18.852583 7.98e-4,26.027533 3.4757634,3.47616 8.0965494,5.39078 13.0121684,5.39078 4.91562,0 9.537204,-1.91462 13.013765,-5.39118 7.175344,-7.17575 7.175344,-18.85139 0,-26.027133 C 29.526681,3.510074 24.905097,1.595851 19.989078,1.595851 Z"
     id="path1017"
     inkscape:connector-curvature="0"
     style="stroke-width:0.39896271" />
  <path
     d="m 20.021394,32.86136 c -3.426291,0 -6.647117,-1.33493 -9.06922,-3.75743 -5.0009974,-5.001796 -5.0013964,-13.140236 -7.98e-4,-18.14243 2.422901,-2.422501 5.644126,-3.756633 9.070816,-3.756633 3.426691,0 6.647517,1.334132 9.070018,3.756633 5.001796,5.002194 5.002195,13.140634 0.0012,18.14123 -2.423698,2.4237 -5.645322,3.75863 -9.072013,3.75863 z m 7.98e-4,-24.060642 c -3.000598,0 -5.821264,1.168163 -7.942549,3.289049 -4.3786164,4.379812 -4.3782174,11.506483 7.98e-4,15.885893 2.120886,2.12169 4.941153,3.28985 7.940953,3.28985 3.000599,0 5.821664,-1.16896 7.943348,-3.29104 4.379014,-4.379018 4.378615,-11.504891 -7.98e-4,-15.884703 C 25.843058,9.968881 23.022791,8.800718 20.022192,8.800718 Z"
     id="path1019"
     inkscape:connector-curvature="0"
     style="stroke-width:0.39896271" />
</svg>
