<?xml version="1.0" encoding="UTF-8" standalone="no"?>
<svg
   xmlns:dc="http://purl.org/dc/elements/1.1/"
   xmlns:cc="http://creativecommons.org/ns#"
   xmlns:rdf="http://www.w3.org/1999/02/22-rdf-syntax-ns#"
   xmlns:svg="http://www.w3.org/2000/svg"
   xmlns="http://www.w3.org/2000/svg"
   xmlns:sodipodi="http://sodipodi.sourceforge.net/DTD/sodipodi-0.dtd"
   xmlns:inkscape="http://www.inkscape.org/namespaces/inkscape"
   id="Слой_1"
   viewBox="0 0 27.810068 40.000004"
   version="1.1"
   sodipodi:docname="icon-gmap.svg"
   width="27.810068"
   height="40.000004"
   inkscape:version="0.92.3 (2405546, 2018-03-11)">
  <metadata
     id="metadata1013">
    <rdf:RDF>
      <cc:Work
         rdf:about="">
        <dc:format>image/svg+xml</dc:format>
        <dc:type
           rdf:resource="http://purl.org/dc/dcmitype/StillImage" />
      </cc:Work>
    </rdf:RDF>
  </metadata>
  <defs
     id="defs1011" />
  <sodipodi:namedview
     pagecolor="#ffffff"
     bordercolor="#666666"
     borderopacity="1"
     objecttolerance="10"
     gridtolerance="10"
     guidetolerance="10"
     inkscape:pageopacity="0"
     inkscape:pageshadow="2"
     inkscape:window-width="1920"
     inkscape:window-height="1025"
     id="namedview1009"
     showgrid="false"
     inkscape:zoom="1.6978417"
     inkscape:cx="35.702168"
     inkscape:cy="52.000002"
     inkscape:window-x="0"
     inkscape:window-y="27"
     inkscape:window-maximized="1"
     inkscape:current-layer="Слой_1" />
  <style
     id="style3881" />
  <path
     d="M 13.905421,0.19474196 C 6.3338534,0.19513096 0.19597636,6.333009 0.19558636,13.904576 c 0,0 -0.36183,12.179164 12.85296964,25.394354 0,0 0.506329,0.50633 0.856865,0.50633 0.350535,0 0.856864,-0.50633 0.856864,-0.50633 C 27.790523,24.31548 27.615255,13.904576 27.615255,13.904576 27.614866,6.333009 21.476989,0.19513096 13.905421,0.19474196 Z m 0,5.60856904 c 4.474391,-3.9e-4 8.101655,3.626874 8.101266,8.101265 3.89e-4,4.474392 -3.626875,8.101654 -8.101266,8.101264 -4.4743916,3.9e-4 -8.1016546,-3.626872 -8.1012656,-8.101264 -3.89e-4,-4.474391 3.626874,-8.101655 8.1012656,-8.101265 z m 0.878676,21.766699 c -0.287829,0.0273 -0.580331,0.0428 -0.878676,0.044 -0.184616,-7.8e-4 -0.366894,-0.008 -0.547615,-0.0191 0.182279,0.0101 0.364947,0.0164 0.547615,0.0195 a 13.710613,13.710613 0 0 0 0.878676,-0.0444 z"
     id="XMLID_3_"
     stroke-miterlimit="10"
     inkscape:connector-curvature="0"
     style="stroke:#000000;stroke-width:0.38948393;stroke-miterlimit:10" />
</svg>
