<?xml version="1.0" encoding="utf-8"?><svg width="254" height="210" viewBox="0 0 254 210" xmlns="http://www.w3.org/2000/svg" xmlns:xlink="http://www.w3.org/1999/xlink"><svg height="70" version="1" width="70" viewBox="-102.4 -102.4 716.8 716.8" id="icon-arrow" xmlns="http://www.w3.org/2000/svg"><path d="M193.2 445.2l-42.4-42.4L297.6 256 150.8 109.2l42.4-42.4L382.4 256z"/></svg><svg viewBox="-12.8 -12.8 89.6 89.6" width="70" height="70" id="icon-calendar" x="70" xmlns="http://www.w3.org/2000/svg"><path d="M47 14h5c2.2 0 4 1.8 4 4v30c0 2.2-1.8 4-4 4H12c-2.2 0-4-1.8-4-4V18c0-2.2 1.8-4 4-4h5" fill="#E5E5E5"/><path d="M52 14H12c-2.2 0-4 1.8-4 4v5h48v-5c0-2.2-1.8-4-4-4z" fill="#f7f7f7" fill-opacity=".427"/><path fill="none" stroke="#cdcdcd" stroke-linecap="round" stroke-linejoin="round" stroke-miterlimit="10" stroke-width="2" d="M35 14h6m-18 0h6m6 38H12c-2.2 0-4-1.8-4-4V18c0-2.2 1.8-4 4-4h5m30 0h5c2.2 0 4 1.8 4 4v17"/><circle cx="29" cy="31.2" fill="none" r="1" stroke="#cdcdcd" stroke-linecap="round" stroke-linejoin="round" stroke-miterlimit="10" stroke-width="2"/><circle cx="36" cy="31.2" fill="none" r="1" stroke="#cdcdcd" stroke-linecap="round" stroke-linejoin="round" stroke-miterlimit="10" stroke-width="2"/><circle cx="43" cy="31.2" fill="none" r="1" stroke="#cdcdcd" stroke-linecap="round" stroke-linejoin="round" stroke-miterlimit="10" stroke-width="2"/><circle cx="50" cy="31.2" fill="none" r="1" stroke="#cdcdcd" stroke-linecap="round" stroke-linejoin="round" stroke-miterlimit="10" stroke-width="2"/><circle cx="29" cy="38.2" fill="none" r="1" stroke="#cdcdcd" stroke-linecap="round" stroke-linejoin="round" stroke-miterlimit="10" stroke-width="2"/><circle cx="22" cy="38.2" fill="none" r="1" stroke="#cdcdcd" stroke-linecap="round" stroke-linejoin="round" stroke-miterlimit="10" stroke-width="2"/><circle cx="15" cy="38.2" fill="none" r="1" stroke="#cdcdcd" stroke-linecap="round" stroke-linejoin="round" stroke-miterlimit="10" stroke-width="2"/><circle cx="36" cy="38.2" fill="none" r="1" stroke="#cdcdcd" stroke-linecap="round" stroke-linejoin="round" stroke-miterlimit="10" stroke-width="2"/><circle cx="29" cy="45.2" fill="none" r="1" stroke="#cdcdcd" stroke-linecap="round" stroke-linejoin="round" stroke-miterlimit="10" stroke-width="2"/><circle cx="22" cy="45.2" fill="none" r="1" stroke="#cdcdcd" stroke-linecap="round" stroke-linejoin="round" stroke-miterlimit="10" stroke-width="2"/><circle cx="15" cy="45.2" fill="none" r="1" stroke="#cdcdcd" stroke-linecap="round" stroke-linejoin="round" stroke-miterlimit="10" stroke-width="2"/><path fill="none" stroke="#cdcdcd" stroke-linecap="round" stroke-linejoin="round" stroke-miterlimit="10" stroke-width="2" d="M32 16v-6m-12 6v-6m24 6v-6M8 23h48"/><circle cx="49.2" cy="48" fill="#f7f7f7" r="11.1"/><path d="M43.4 38.5l5.6 9.3 10.6-3.6s-1.9-5-6.6-6.6c-4.7-1.7-8.3 0-9.6.9z" fill="#f7f7f7" fill-opacity=".428"/><circle cx="49.2" cy="48" fill="none" r="11.1" stroke="#cdcdcd" stroke-linecap="round" stroke-linejoin="round" stroke-miterlimit="10" stroke-width="2"/><path fill="none" stroke="#cdcdcd" stroke-linecap="round" stroke-linejoin="round" stroke-miterlimit="10" stroke-width="2" d="M49.2 48l5.1-1.8M49.2 48l-4.1-6.6"/></svg><svg id="icon-cart" viewBox="-12.8 -12.8 89.6 89.6" width="70" height="70" y="70" xmlns="http://www.w3.org/2000/svg"><style id="cstyle3845">.cst0{fill:#000}</style><g id="cg3852"><path id="cFill-110" d="M48.5 45.7H18.2c-.5 0-.9-.2-1.1-.6-.3-.4-.3-.9-.1-1.3l2.6-6.6L17 12.6H8.6V9.8h9.6c.7 0 1.3.5 1.4 1.2l2.8 26.1c0 .2 0 .4-.1.7l-2 5h28.2v2.9" class="cst0"/><path id="cFill-111" d="M21.3 38.8l-.6-2.7 31.9-6.6V18.2h-33v-2.8H54c.8 0 1.4.6 1.4 1.4v13.8c0 .7-.5 1.2-1.1 1.3l-33 6.9" class="cst0"/><path id="cFill-112" d="M49.9 54c-3 0-5.5-2.5-5.5-5.5s2.5-5.5 5.5-5.5 5.5 2.5 5.5 5.5-2.5 5.5-5.5 5.5zm0-8.3c-1.5 0-2.8 1.2-2.8 2.8 0 1.6 1.2 2.8 2.8 2.8 1.6 0 2.8-1.2 2.8-2.8 0-1.6-1.3-2.8-2.8-2.8z" class="cst0"/><path id="cFill-113" d="M16.9 54c-3 0-5.5-2.5-5.5-5.5s2.5-5.5 5.5-5.5 5.5 2.5 5.5 5.5-2.5 5.5-5.5 5.5zm0-8.3c-1.5 0-2.8 1.2-2.8 2.8 0 1.6 1.2 2.8 2.8 2.8 1.6 0 2.8-1.2 2.8-2.8 0-1.6-1.3-2.8-2.8-2.8z" class="cst0" fill="maroon"/></g></svg><svg height="68" width="68" viewBox="-10 -10 68 68" id="icon-email" x="140" y="140" xmlns="http://www.w3.org/2000/svg"><path d="M44 40H4c-2.206 0-4-1.794-4-4V12c0-2.206 1.794-4 4-4h40c2.206 0 4 1.794 4 4v24c0 2.206-1.794 4-4 4zM4 10c-1.103 0-2 .897-2 2v24c0 1.103.897 2 2 2h40c1.103 0 2-.897 2-2V12c0-1.103-.897-2-2-2H4z"/><path d="M24 29.191L6.457 17.84a1 1 0 011.086-1.68L24 26.809 40.457 16.16a1 1 0 011.086 1.68L24 29.191zM6.001 34a1 1 0 01-.556-1.832l9-6a1 1 0 111.11 1.664l-9 6a1.004 1.004 0 01-.554.168zm35.998 0c-.19 0-.383-.055-.554-.168l-9-6a1 1 0 111.11-1.664l9 6A1 1 0 0141.999 34z"/></svg><svg id="icon-gmap" viewBox="-27.8 -27.8 194.6 194.6" width="70" height="70" x="70" y="70" xmlns="http://www.w3.org/2000/svg"><style id="estyle3881"/><path d="M69.5 19.3c-19.44.001-35.199 15.76-35.2 35.2 0 0-.929 31.27 33 65.2 0 0 1.3 1.3 2.2 1.3.9 0 2.2-1.3 2.2-1.3 33.45-38.47 33-65.2 33-65.2-.001-19.44-15.76-35.199-35.2-35.2zm0 14.4c11.488-.001 20.801 9.312 20.8 20.8.001 11.488-9.312 20.801-20.8 20.8-11.488.001-20.801-9.312-20.8-20.8-.001-11.488 9.312-20.801 20.8-20.8zm2.256 55.886c-.739.07-1.49.11-2.256.113-.474-.002-.942-.02-1.406-.049.468.026.937.042 1.406.05a35.202 35.202 0 002.256-.114z" id="eXMLID_3_" stroke="#000" stroke-miterlimit="10"/></svg><svg height="70" width="70" viewBox="-25.6 -25.6 179.2 179.2" id="icon-help" x="140" xmlns="http://www.w3.org/2000/svg"><path d="M30.043 100.033a2 2 0 01-1.414-3.413l12.672-12.671a2 2 0 012.828 2.828L31.457 99.448c-.391.39-.902.585-1.414.585zm55.309-55.308a2 2 0 01-1.414-3.414l12.666-12.667a2 2 0 112.828 2.828L86.766 44.139a1.994 1.994 0 01-1.414.586zm12.666 55.31a1.996 1.996 0 01-1.414-.586L84.02 86.865a2 2 0 112.828-2.828l12.584 12.584a2 2 0 01-1.414 3.414zM42.791 44.807a1.996 1.996 0 01-1.414-.586L28.629 31.473a2 2 0 112.828-2.828l12.748 12.748a2 2 0 01-1.414 3.414z"/><path d="M64.029 114.178c-13.39 0-25.977-5.215-35.443-14.684C9.042 79.951 9.041 48.147 28.584 28.6c9.468-9.468 22.056-14.682 35.446-14.682S90.009 19.132 99.477 28.6c19.545 19.545 19.545 51.347 0 70.892-9.469 9.471-22.058 14.686-35.448 14.686zm.001-96.26c-12.321 0-23.905 4.798-32.618 13.51-17.983 17.988-17.982 47.254.002 65.238 8.712 8.713 20.294 13.512 32.615 13.512s23.905-4.799 32.619-13.513c17.985-17.986 17.985-47.251 0-65.237-8.712-8.712-20.296-13.51-32.618-13.51z"/><path d="M64.111 96.285c-8.588 0-16.661-3.346-22.732-9.418-12.535-12.537-12.536-32.936-.002-45.474 6.073-6.072 14.147-9.416 22.736-9.416s16.662 3.344 22.734 9.416c12.537 12.538 12.538 32.937.003 45.471-6.075 6.075-14.15 9.421-22.739 9.421zm.002-60.308c-7.521 0-14.591 2.928-19.908 8.244-10.975 10.978-10.974 28.841.002 39.818 5.316 5.318 12.385 8.246 19.904 8.246 7.521 0 14.592-2.93 19.91-8.249 10.976-10.976 10.975-28.837-.002-39.815-5.316-5.316-12.385-8.244-19.906-8.244z"/></svg><svg height="44" width="44" viewBox="-10 -10 44 44" id="icon-pdf" x="210" xmlns="http://www.w3.org/2000/svg"><path d="M5 2c-1.105 0-2 .9-2 2v18c0 1.1.895 2 2 2h14c1.105 0 2-.9 2-2V8l-6-6H5z" fill="#c0392b"/><path d="M5 1c-1.105 0-2 .9-2 2v18c0 1.1.895 2 2 2h14c1.105 0 2-.9 2-2V7l-6-6H5z" fill="#e74c3c"/><path d="M21 7l-6-6v4c0 1.1.895 2 2 2h4z" fill="#c0392b"/><path d="M19.112 11h-.29c-.09.1-.601.8-.822 1-.06.1-.15.2-.201.2-.743.9-2.323 2.4-3.271 3.2-.124.1-.244.2-.266.2-.066.1-.698.5-.982.7-.905.6-1.967 1.1-2.792 1.3-1.628.4-2.898.3-4.548-.5-.498-.2-1.208-.6-1.597-.9-.382-.3-.342-.3-.342.2v.5l.258.1c.331.2 1.045.6 1.51.8.355.2.465.3.267.3-.183-.1-1.22-.1-1.619 0h-.4c-.01 0-.017.2-.017.4v.4h.134c.573-.2 1.804-.2 2.377-.1.675.1 1.15.2 1.72.5 1.088.5 1.991 1.5 2.384 2.5l.08.2h.88l-.024-.1c-.141-.6-.537-1.3-1.027-1.8-.322-.4-.89-.8-1.115-1h-.075c-.037-.1-.417-.3-.58-.3-.092-.1-.167-.1-.167-.1 0-.1.07-.1.155 0 .214 0 1.074-.1 1.463-.2 1.078-.2 2.098-.6 3.129-1.2.37-.2 1.21-.9 1.546-1.1.25-.3.33-.3.228-.2-.036.1-.105.2-.155.3-.049.1-.135.2-.19.3-.778 1.2-1.277 2.7-1.412 4.4-.019.3-.035.6-.035.7v.3h4.664l-.076-.1c-.42-.6-.941-1.9-1.116-2.8-.144-.7-.187-1.8-.097-2.4.262-1.6 1.155-3 2.689-3.9.158-.1.362-.2.453-.3l.167-.1v-.3c0-.2-.012-.4-.027-.4-.364.2-1.174.7-1.546.9-.199.2-.211.2-.024 0 .268-.3.73-.8 1.221-1.4l.229-.2h-.741z" fill="#ecf0f1"/></svg><svg height="70" width="70" viewBox="-10 -10 70 70" id="icon-phone" x="140" y="70" xmlns="http://www.w3.org/2000/svg"><path fill="none" d="M0 0h50v50H0z"/><path d="M30.217 35.252s4.049-2.318 5.109-2.875c1.057-.559 2.152-.7 2.817-.294 1.007.616 9.463 6.241 10.175 6.739.712.499 1.055 1.924.076 3.32-.975 1.396-5.473 6.916-7.379 6.857-1.909-.062-9.846-.236-24.813-15.207C1.238 18.826 1.061 10.887 1 8.978.939 7.07 6.459 2.571 7.855 1.595c1.398-.975 2.825-.608 3.321.078.564.781 6.124 9.21 6.736 10.176.419.66.265 1.761-.294 2.819-.556 1.06-2.874 5.109-2.874 5.109s1.634 2.787 7.16 8.312c5.527 5.526 8.313 7.163 8.313 7.163z" fill="none" stroke="#000" stroke-miterlimit="10" stroke-width="2"/></svg><svg height="70" width="70" viewBox="-12.8 -12.8 89.6 89.6" id="icon-search" y="140" xmlns="http://www.w3.org/2000/svg"><g transform="translate(25.5 -27)" stroke="#000"><circle class="ifil0 istr1" cx=".738" cy="53.392" r="20.063" clip-rule="evenodd" fill="none" stroke-width="2" image-rendering="optimizeQuality" shape-rendering="geometricPrecision" text-rendering="geometricPrecision"/><path class="ifil0 istr2" clip-rule="evenodd" fill="none" stroke-width="4" stroke-linecap="round" stroke-linejoin="round" image-rendering="optimizeQuality" shape-rendering="geometricPrecision" text-rendering="geometricPrecision" d="M15.618 68.56l14.687 14.591"/><path class="ifil0 istr0" d="M-12.701 53.392c0-7.392 6.047-13.44 13.44-13.44" clip-rule="evenodd" fill="none" stroke-width="2" stroke-linecap="round" stroke-linejoin="round" image-rendering="optimizeQuality" shape-rendering="geometricPrecision" text-rendering="geometricPrecision"/></g></svg><svg data-name="Livello 1" viewBox="-25.6 -25.6 179.2 179.2" width="70" height="70" id="icon_location" x="70" y="140" xmlns="http://www.w3.org/2000/svg"><path d="M64 128a6.9 6.9 0 01-4.89-2L26.23 93.12A55.05 55.05 0 0110 53.69a53.29 53.29 0 0115.87-38.11 54.56 54.56 0 0176.26 0A53.29 53.29 0 01118 53.69a55.05 55.05 0 01-16.23 39.43l-32.88 32.82A6.9 6.9 0 0164 128zM64 6a48.19 48.19 0 00-33.92 13.85A47.34 47.34 0 0016 53.7a49.1 49.1 0 0014.47 35.17l32.87 32.82a.91.91 0 001.31 0l32.88-32.82A49.1 49.1 0 00112 53.7a47.34 47.34 0 00-14.08-33.85A48.19 48.19 0 0064 6z"/><path d="M64 81.41a27.25 27.25 0 1119.3-8 27.23 27.23 0 01-19.3 8zm0-48.49a21.26 21.26 0 1015.06 6.22A21.25 21.25 0 0064 32.92z"/></svg></svg>