<svg xmlns="http://www.w3.org/2000/svg" width="1091.973" height="299.067"><path d="M422.979 124.645c0-4.173-1.271-29.39-23.171-29.39-15.552 0-22.057 7.998-23.17 29.39zm11.741 5.044c0 3.304-.317 6.087-.317 6.087h-57.764c1.426 17.39 9.362 24.87 25.709 24.87 11.583 0 20.472-2.087 27.135-6.434v12.868c-7.616 4.001-16.979 6.088-28.247 6.088-16.504 0-36.183-7.479-36.183-43.652 0-9.219-1.269-46.088 34.755-46.088 36.023 0 34.912 42.957 34.912 46.261M515.825 171.776H502.18l-21.266-33.044-21.265 33.044h-13.965l28.249-44-27.455-42.783h13.488l20.79 32.174 20.789-32.174h13.964l-27.612 42.783-.159.348 28.088 43.652M587.725 129.341c0-30.781-13.329-34.436-23.328-34.436-13.964 0-21.106 5.219-21.106 15.48v46.783c6.19 2.956 12.856 4.347 19.678 4.347 17.458 0 24.756-9.564 24.756-32.174zm11.427.175c0 36.173-19.679 43.652-36.183 43.652-6.822 0-13.329-1.219-19.678-3.305v34.088h-11.427v-93.044c0-6.435 2.383-27.479 32.533-27.479 13.012 0 34.755 6.087 34.755 46.088M621.065 171.776V51.949h11.426v119.827h-11.426M706.448 128.995s-5.236-1.046-14.125-1.046c-9.522 0-28.723 1.219-28.723 17.218 0 13.738 11.903 16.348 21.741 16.348 9.839 0 21.107-2.61 21.107-15.826v-16.694zm11.424-9.394v26.088c0 23.999-22.215 27.48-32.53 27.48-10.315 0-33.169-3.481-33.169-28.002 0-28.695 34.122-28.522 41.42-28.522 7.142 0 12.696.871 12.696.871 0-16.348-8.888-21.565-23.17-21.565-11.427 0-20.154 2.956-23.168 4.173V87.949c5.872-2.26 13.964-4.521 23.802-4.521 22.219 0 34.119 12.523 34.119 36.173M804.535 115.255v56.521h-11.427v-56.521c0-8.174-2.223-19.304-21.265-19.304-8.092 0-15.394 1.737-20.79 3.477v72.348h-11.426V91.949c3.81-2.085 16.981-8.521 33.486-8.521 19.995 0 31.422 11.652 31.422 31.827M877.387 128.995s-5.235-1.046-14.123-1.046c-9.521 0-28.723 1.219-28.723 17.218 0 13.738 11.903 16.348 21.742 16.348 9.838 0 21.104-2.61 21.104-15.826v-16.694zm11.426-9.394v26.088c0 23.999-22.216 27.48-32.53 27.48-10.316 0-33.168-3.481-33.168-28.002 0-28.695 34.12-28.522 41.418-28.522 7.143 0 12.695.871 12.695.871 0-16.348-8.887-21.565-23.168-21.565-11.427 0-20.155 2.956-23.17 4.173V87.949c5.874-2.26 13.966-4.521 23.805-4.521 22.216 0 34.118 12.523 34.118 36.173M926.277 149.341c0 8.696 3.016 12 11.426 12 3.81 0 6.664-.869 9.045-2.088v11.828c-3.016 1.216-6.504 2.087-10.473 2.087-6.506 0-21.424-2.261-21.424-24.521V96.472h-13.804V84.993h13.804V60.472h11.426v24.521h20.471v11.479h-20.47v52.87M1023.245 128.297c0-23.304-7.774-33.392-25.865-33.392-17.936 0-25.71 10.088-25.71 33.392 0 23.306 7.774 33.391 25.71 33.391 18.09 0 25.865-10.085 25.865-33.39zm11.427 0c0 37.044-20.313 44.871-37.292 44.871-16.983 0-37.137-7.827-37.137-44.87s20.154-44.87 37.137-44.87c16.979 0 37.292 7.827 37.292 44.87M1064.996 100.124v71.652h-11.427V91.949c4.123-1.912 19.36-8.348 38.403-8.348v12.002c-10.95.348-20.472 2.609-26.976 4.521" fill="#231f20"/><path d="M294.164-.002L84.871.108S53.63-.002 26.31 26.947C2.893 50.045 1.975 87.183 1.975 87.183v74.908a117.925 117.925 0 0 1 5.964-21.569c5.296-13.832 12.657-25.88 22.079-36.138 9.421-10.26 20.75-18.378 33.986-24.364 13.235-5.985 27.796-8.976 43.676-8.976 13.392 0 25.539 2.294 36.443 6.877 10.897 4.587 20.239 10.957 28.03 19.117 7.783 8.159 13.816 17.836 18.099 29.03 4.283 11.191 5.238 14.614 6.098 27.794.985 15.114-10.219 18.563-16.772 18.834H53.025c-1.556 0-2.414.548-2.57 1.633-.156 1.09-.23 2.412-.23 3.967 0 16.63 1.98 30.66 5.95 42.082 3.978 11.424 9.422 20.713 16.356 27.861 6.927 7.152 15.026 12.503 24.139 16.1 3.772 1.488 9.044 3.743 16.984 4.185 9.348.522 18.44-.91 27.326-2.443 2.911-.77 5.583-2.115 7.657-5.904 3.453-6.314-.442-10.94-2.723-14.45-2.43-3.2-3.695-6.585-3.797-10.156-.122-4.35 2.013-8.688 6.414-13.01 4.394-4.32 9.71-6.567 15.928-6.742 8.727-.245 14.979 1.91 18.766 6.467 3.786 4.562 5.778 10.182 5.966 16.863.228 8.08-1.816 15.677-6.138 22.797l-.037.055c-.224.654-.61 1.274-1.157 1.857-.16.2-.33.358-.49.555-4.133 6.092-9.42 11.561-16.014 16.34a80.852 80.852 0 0 1-5.378 3.545c-4.114 2.77-8.31 5.245-12.684 7.078-.691.28-1.4.546-2.111.81h65.525s31.39-2.869 50.693-19.222c28.946-24.52 32.483-61.3 32.483-61.3l.281-211.667zM104.648 88.061c-8.721 0-16.163 1.517-22.308 4.55-6.152 3.03-11.329 7.074-15.537 12.123-4.201 5.051-7.47 10.881-9.809 17.487-2.331 6.609-3.969 13.565-4.9 20.869-.626 3.728-.865 6.798-.701 9.207.149 2.412.85 3.613 2.101 3.613h87.121c5.343-.503 8.639-4.278 8.53-9.906-.038-1.945.119-4.083.119-6.414 0-6.68-1.05-13.09-3.159-19.235-2.1-6.138-5.057-11.618-8.87-16.435-3.822-4.817-8.492-8.666-14.018-11.543-5.527-2.873-11.716-4.316-18.569-4.316z" fill="#bf1b2c"/><path d="M294.032 98.504l.132-98.505-163.508.084c70.816 88.426 152.967 97.601 163.376 98.421M4.906 67.637C2.212 78.838 1.975 87.184 1.975 87.184v74.908a117.925 117.925 0 0 1 5.964-21.569c5.296-13.832 12.657-25.88 22.079-36.138 9.303-10.131 20.469-18.17 33.49-24.133-17.71-5.554-37.172-9.875-58.602-12.615zM89.725 89.86c-2.64.709-5.103 1.624-7.385 2.75-6.152 3.03-11.329 7.074-15.537 12.123-4.201 5.051-7.47 10.881-9.809 17.487-2.331 6.609-3.969 13.565-4.9 20.869-.626 3.728-.865 6.798-.701 9.207.149 2.412.85 3.613 2.101 3.613h87.121c5.343-.503 8.639-4.278 8.53-9.906-.038-1.945.119-4.083.119-6.414 0-5.484-.721-10.782-2.14-15.904-16.173-12.797-35.139-24.368-57.4-33.825zm101.004 79.028c-3.488 2.748-7.893 3.674-11.15 3.808H53.024c-1.556 0-2.414.548-2.57 1.633-.156 1.09-.23 2.41-.23 3.965 0 16.63 1.98 30.662 5.95 42.084 3.978 11.424 9.422 20.713 16.356 27.861 6.927 7.152 15.026 12.503 24.139 16.1 3.772 1.488 9.044 3.743 16.984 4.185 9.348.522 18.44-.91 27.326-2.443 2.911-.77 5.583-2.115 7.657-5.904 3.453-6.314-.442-10.94-2.723-14.45-2.43-3.2-3.695-6.585-3.797-10.156-.122-4.35 2.013-8.688 6.414-13.01 4.394-4.32 9.71-6.567 15.928-6.742 8.727-.245 14.979 1.91 18.766 6.467 3.786 4.562 5.778 10.182 5.966 16.863.228 8.08-1.816 15.677-6.138 22.797l-.037.055c-.224.654-.61 1.274-1.157 1.857-.16.2-.33.358-.49.555-4.133 6.092-9.42 11.561-16.013 16.34a80.849 80.849 0 0 1-5.38 3.545c-4.113 2.77-8.308 5.245-12.683 7.078-.691.28-1.4.546-2.111.81h65.525s13.28-1.24 27.871-6.583c-3.515-23.383-14.472-71.375-47.85-116.715z" fill="#f14624"/><path d="M210.708 292.188h-110.04l-67.425-33.71 67.425 33.71h110.04s31.39-2.87 50.693-19.224c28.946-24.52 32.482-61.3 32.482-61.3l.065-49.493-.065 49.493s-3.536 36.78-32.482 61.3c-19.302 16.353-50.693 19.224-50.693 19.224" fill="#9c9a9b"/><path d="M210.708 292.188s13.279-1.241 27.87-6.585c-2.386-15.87-8.197-43.08-22.117-73.096 49.41-21.55 74.69-50.336 74.69-50.336h2.797l-.065 49.493s-3.536 36.78-32.482 61.3c-19.302 16.353-50.693 19.224-50.693 19.224" fill="#84171f"/><path d="M216.46 212.506a271.72 271.72 0 0 1-31.886 11.566c2.91 4.218 4.453 9.243 4.617 15.078.228 8.08-1.816 15.677-6.138 22.797l-.037.055c-.224.654-.61 1.274-1.157 1.857-.16.2-.33.358-.49.555-4.133 6.092-9.42 11.561-16.014 16.34a80.852 80.852 0 0 1-5.378 3.545c-4.114 2.77-8.31 5.245-12.684 7.078-.691.28-1.4.546-2.111.81h65.525s13.28-1.24 27.871-6.583c-2.385-15.87-8.197-43.082-22.117-73.098zm-74.157 20.54c-12.62 1.692-26.022 2.652-40.205 2.653-12.823.001-26.278-.78-40.364-2.5 3.076 5.77 6.67 10.788 10.797 15.041 6.927 7.152 15.026 12.503 24.139 16.1 3.772 1.488 9.044 3.743 16.984 4.185 9.348.522 18.44-.91 27.326-2.443 2.911-.77 5.583-2.115 7.657-5.904 3.453-6.314-.442-10.94-2.723-14.45-2.43-3.2-3.695-6.585-3.797-10.156-.024-.842.04-1.684.186-2.525z" fill="#94351c"/></svg>