<svg xmlns="http://www.w3.org/2000/svg" viewBox="0 0 64 64"><path d="M47 14h5c2.2 0 4 1.8 4 4v30c0 2.2-1.8 4-4 4H12c-2.2 0-4-1.8-4-4V18c0-2.2 1.8-4 4-4h5" fill="#E5E5E5"/><path d="M52 14H12c-2.2 0-4 1.8-4 4v5h48v-5c0-2.2-1.8-4-4-4z" fill="#f7f7f7" fill-opacity=".427"/><path fill="none" stroke="#cdcdcd" stroke-linecap="round" stroke-linejoin="round" stroke-miterlimit="10" stroke-width="2" d="M35 14h6M23 14h6M35 52H12c-2.2 0-4-1.8-4-4V18c0-2.2 1.8-4 4-4h5M47 14h5c2.2 0 4 1.8 4 4v17"/><circle cx="29" cy="31.2" fill="none" r="1" stroke="#cdcdcd" stroke-linecap="round" stroke-linejoin="round" stroke-miterlimit="10" stroke-width="2"/><circle cx="36" cy="31.2" fill="none" r="1" stroke="#cdcdcd" stroke-linecap="round" stroke-linejoin="round" stroke-miterlimit="10" stroke-width="2"/><circle cx="43" cy="31.2" fill="none" r="1" stroke="#cdcdcd" stroke-linecap="round" stroke-linejoin="round" stroke-miterlimit="10" stroke-width="2"/><circle cx="50" cy="31.2" fill="none" r="1" stroke="#cdcdcd" stroke-linecap="round" stroke-linejoin="round" stroke-miterlimit="10" stroke-width="2"/><circle cx="29" cy="38.2" fill="none" r="1" stroke="#cdcdcd" stroke-linecap="round" stroke-linejoin="round" stroke-miterlimit="10" stroke-width="2"/><circle cx="22" cy="38.2" fill="none" r="1" stroke="#cdcdcd" stroke-linecap="round" stroke-linejoin="round" stroke-miterlimit="10" stroke-width="2"/><circle cx="15" cy="38.2" fill="none" r="1" stroke="#cdcdcd" stroke-linecap="round" stroke-linejoin="round" stroke-miterlimit="10" stroke-width="2"/><circle cx="36" cy="38.2" fill="none" r="1" stroke="#cdcdcd" stroke-linecap="round" stroke-linejoin="round" stroke-miterlimit="10" stroke-width="2"/><circle cx="29" cy="45.2" fill="none" r="1" stroke="#cdcdcd" stroke-linecap="round" stroke-linejoin="round" stroke-miterlimit="10" stroke-width="2"/><circle cx="22" cy="45.2" fill="none" r="1" stroke="#cdcdcd" stroke-linecap="round" stroke-linejoin="round" stroke-miterlimit="10" stroke-width="2"/><circle cx="15" cy="45.2" fill="none" r="1" stroke="#cdcdcd" stroke-linecap="round" stroke-linejoin="round" stroke-miterlimit="10" stroke-width="2"/><path fill="none" stroke="#cdcdcd" stroke-linecap="round" stroke-linejoin="round" stroke-miterlimit="10" stroke-width="2" d="M32 16v-6M20 16v-6M44 16v-6M8 23h48"/><circle cx="49.2" cy="48" fill="#f7f7f7" r="11.1"/><path d="M43.4 38.5l5.6 9.3 10.6-3.6s-1.9-5-6.6-6.6c-4.7-1.7-8.3 0-9.6.9z" fill="#f7f7f7" fill-opacity=".428"/><circle cx="49.2" cy="48" fill="none" r="11.1" stroke="#cdcdcd" stroke-linecap="round" stroke-linejoin="round" stroke-miterlimit="10" stroke-width="2"/><path fill="none" stroke="#cdcdcd" stroke-linecap="round" stroke-linejoin="round" stroke-miterlimit="10" stroke-width="2" d="M49.2 48l5.1-1.8M49.2 48l-4.1-6.6"/></svg>