<svg height="128" width="128" xmlns="http://www.w3.org/2000/svg"><path d="M30.043 100.033a2 2 0 0 1-1.414-3.413l12.672-12.671a2 2 0 0 1 2.828 2.828L31.457 99.448c-.391.39-.902.585-1.414.585zM85.352 44.725a2 2 0 0 1-1.414-3.414l12.666-12.667a2 2 0 1 1 2.828 2.828L86.766 44.139a1.994 1.994 0 0 1-1.414.586zM98.018 100.035a1.996 1.996 0 0 1-1.414-.586L84.02 86.865a2 2 0 1 1 2.828-2.828l12.584 12.584a2 2 0 0 1-1.414 3.414zM42.791 44.807a1.996 1.996 0 0 1-1.414-.586L28.629 31.473a2 2 0 1 1 2.828-2.828l12.748 12.748a2 2 0 0 1-1.414 3.414z"/><path d="M64.029 114.178c-13.39 0-25.977-5.215-35.443-14.684C9.042 79.951 9.041 48.147 28.584 28.6c9.468-9.468 22.056-14.682 35.446-14.682S90.009 19.132 99.477 28.6c19.545 19.545 19.545 51.347 0 70.892-9.469 9.471-22.058 14.686-35.448 14.686zm.001-96.26c-12.321 0-23.905 4.798-32.618 13.51-17.983 17.988-17.982 47.254.002 65.238 8.712 8.713 20.294 13.512 32.615 13.512s23.905-4.799 32.619-13.513c17.985-17.986 17.985-47.251 0-65.237-8.712-8.712-20.296-13.51-32.618-13.51z"/><path d="M64.111 96.285c-8.588 0-16.661-3.346-22.732-9.418-12.535-12.537-12.536-32.936-.002-45.474 6.073-6.072 14.147-9.416 22.736-9.416s16.662 3.344 22.734 9.416c12.537 12.538 12.538 32.937.003 45.471-6.075 6.075-14.15 9.421-22.739 9.421zm.002-60.308c-7.521 0-14.591 2.928-19.908 8.244-10.975 10.978-10.974 28.841.002 39.818 5.316 5.318 12.385 8.246 19.904 8.246 7.521 0 14.592-2.93 19.91-8.249 10.976-10.976 10.975-28.837-.002-39.815-5.316-5.316-12.385-8.244-19.906-8.244z"/></svg>