<svg xmlns="http://www.w3.org/2000/svg" id="Слой_1" viewBox="0 0 139 139"><style id="style3881"></style><path d="M69.5 19.3c-19.44.001-35.199 15.76-35.2 35.2 0 0-.929 31.27 33 65.2 0 0 1.3 1.3 2.2 1.3.9 0 2.2-1.3 2.2-1.3 33.45-38.47 33-65.2 33-65.2-.001-19.44-15.76-35.199-35.2-35.2zm0 14.4c11.488-.001 20.801 9.312 20.8 20.8.001 11.488-9.312 20.801-20.8 20.8-11.488.001-20.801-9.312-20.8-20.8-.001-11.488 9.312-20.801 20.8-20.8zm2.256 55.886c-.739.07-1.49.11-2.256.113-.474-.002-.942-.02-1.406-.049.468.026.937.042 1.406.05a35.202 35.202 0 0 0 2.256-.114z" id="XMLID_3_" stroke="#000" stroke-miterlimit="10"/></svg>